<?xml version="1.0" encoding="UTF-8"?>
<svg id="_레이어_1" data-name="레이어_1" xmlns="http://www.w3.org/2000/svg" version="1.1" viewBox="0 0 30 31">
  <!-- Generator: Adobe Illustrator 29.5.1, SVG Export Plug-In . SVG Version: 2.1.0 Build 141)  -->
  <defs>
    <style>
      .st0 {
        fill: #333;
      }
    </style>
  </defs>
  <path class="st0" d="M7.4.6s-.2,0-.4,0c-1.6.2-2.9.7-4.1,1.7-.3.2-.9.8-1.1,1.1-.6.8-1.1,1.6-1.4,2.5-.2.6-.3,1-.4,1.7C0,8,0,8.5,0,15.6s0,7.8.1,8.6c.6,3.3,3.4,6,6.7,6.4.2,0,.4,0,.5,0,.3,0,15,0,15.2,0,.1,0,.3,0,.5,0,3.1-.3,5.8-2.7,6.6-5.7.1-.4.2-.8.2-1.1,0-.1,0-.3,0-.4,0-.2,0-15,0-15.2,0-.1,0-.3,0-.5-.2-1.4-.7-2.7-1.6-3.9-.2-.3-.8-.9-1.1-1.1-1.1-.9-2.4-1.5-3.8-1.8-.7-.1-.2-.1-8.5-.1-4.2,0-7.6,0-7.6,0ZM22.9,3.2c1.3.2,2.5.8,3.3,1.8.6.7,1,1.6,1.2,2.6,0,.2,0,.6,0,8v8.1c-.3,1.1-.7,2.1-1.5,2.8-.8.8-1.7,1.3-2.8,1.5h-.3c0,0-7.7,0-7.7,0-5.6,0-7.7,0-7.9,0-2.2-.2-4.1-1.8-4.6-4-.1-.6-.1-.1-.1-8.4s0-7.6,0-7.9c.3-2.2,1.9-3.9,4-4.4.6-.1.1-.1,8.4-.1,6.7,0,7.7,0,7.9,0Z"/>
  <path class="st0" d="M22.9,5.7c-.6.2-1.1.6-1.2,1.3,0,.2,0,.6,0,.8.1.5.5,1,1.1,1.2.6.2,1.3,0,1.8-.4.3-.3.5-.7.5-1.2s-.1-.7-.3-1c-.4-.5-1.1-.8-1.8-.6Z"/>
  <path class="st0" d="M14.5,8.2c-2,.2-3.8,1.1-5.1,2.6-1.6,1.8-2.2,4.3-1.6,6.6.3,1,.7,2,1.4,2.9.3.3.9.9,1.2,1.2,1.1.8,2.3,1.4,3.7,1.6.4,0,1.2,0,1.6,0,2.1-.2,4-1.2,5.3-2.9.9-1.1,1.4-2.5,1.5-4,0-.4,0-1.2,0-1.6-.2-1.4-.7-2.6-1.6-3.7-.2-.3-.9-.9-1.2-1.2-1.4-1.1-3-1.6-4.7-1.6-.2,0-.4,0-.4,0ZM15.7,10.5c1.6.2,2.9,1.1,3.7,2.5.5.8.7,1.7.7,2.7,0,.6,0,1-.2,1.5-.5,1.8-2.1,3.2-3.9,3.6-.5.1-1.3.1-1.8,0-1.8-.3-3.2-1.3-4-2.9-.3-.7-.5-1.4-.5-2.2s.2-1.5.5-2.3c.5-1.1,1.3-1.9,2.4-2.4.6-.3,1.2-.5,1.9-.5.2,0,.8,0,1.1,0Z"/>
</svg>